<svg width="79" height="40" viewBox="0 0 79 40" fill="none" xmlns="http://www.w3.org/2000/svg">
<path d="M17.0794 27.16C16.3727 27.16 15.7927 27.08 15.3394 26.92C14.8994 26.7467 14.5594 26.4933 14.3194 26.16C14.0927 25.8267 13.9394 25.4133 13.8594 24.92C13.7794 24.4267 13.7394 23.8467 13.7394 23.18V16.8H15.8594V22.34C15.8594 23.0067 15.8794 23.54 15.9194 23.94C15.9727 24.3267 16.0727 24.62 16.2194 24.82C16.366 25.0067 16.5794 25.1267 16.8594 25.18C17.1527 25.2333 17.5394 25.26 18.0194 25.26C18.5527 25.26 18.9794 25.1933 19.2994 25.06C19.6194 24.9267 19.8527 24.7267 19.9994 24.46C20.1594 24.1933 20.2594 23.86 20.2994 23.46C20.3394 23.06 20.3594 22.5933 20.3594 22.06V16.8H22.4994V27H20.5394L20.4594 25.64H20.3194C20.1727 25.96 19.9594 26.2333 19.6794 26.46C19.4127 26.6867 19.066 26.86 18.6394 26.98C18.2127 27.1 17.6927 27.16 17.0794 27.16ZM24.4534 27V16.8H26.4134L26.4734 18.16H26.6134C26.7601 17.84 26.9601 17.5667 27.2134 17.34C27.4801 17.1133 27.8068 16.94 28.1934 16.82C28.5934 16.7 29.0734 16.64 29.6334 16.64C30.4868 16.64 31.1268 16.7667 31.5534 17.02C31.9801 17.26 32.2801 17.64 32.4534 18.16H32.6134C32.7601 17.84 32.9668 17.5667 33.2334 17.34C33.5134 17.1133 33.8534 16.94 34.2534 16.82C34.6668 16.7 35.1534 16.64 35.7134 16.64C36.5934 16.64 37.2534 16.7867 37.6934 17.08C38.1334 17.3733 38.4268 17.82 38.5734 18.42C38.7201 19.0067 38.7934 19.74 38.7934 20.62V27H36.6734V21.46C36.6734 20.7933 36.6534 20.2667 36.6134 19.88C36.5734 19.48 36.4868 19.1867 36.3534 19C36.2334 18.8 36.0401 18.6733 35.7734 18.62C35.5201 18.5667 35.1868 18.54 34.7734 18.54C34.2934 18.54 33.9134 18.6067 33.6334 18.74C33.3534 18.86 33.1468 19.0533 33.0134 19.32C32.8801 19.5733 32.7934 19.9 32.7534 20.3C32.7134 20.7 32.6934 21.18 32.6934 21.74V27H30.5734V21.46C30.5734 20.7933 30.5468 20.2667 30.4934 19.88C30.4534 19.48 30.3668 19.1867 30.2334 19C30.1134 18.8 29.9268 18.6733 29.6734 18.62C29.4201 18.5667 29.0801 18.54 28.6534 18.54C28.1868 18.54 27.8134 18.6067 27.5334 18.74C27.2534 18.8733 27.0401 19.0733 26.8934 19.34C26.7601 19.5933 26.6734 19.9267 26.6334 20.34C26.5934 20.74 26.5734 21.2067 26.5734 21.74V27H24.4534ZM40.773 27V16.8H42.733L42.793 18.16H42.933C43.0796 17.84 43.2796 17.5667 43.533 17.34C43.7996 17.1133 44.1263 16.94 44.513 16.82C44.913 16.7 45.393 16.64 45.953 16.64C46.8063 16.64 47.4463 16.7667 47.873 17.02C48.2996 17.26 48.5996 17.64 48.773 18.16H48.933C49.0796 17.84 49.2863 17.5667 49.553 17.34C49.833 17.1133 50.173 16.94 50.573 16.82C50.9863 16.7 51.473 16.64 52.033 16.64C52.913 16.64 53.573 16.7867 54.013 17.08C54.453 17.3733 54.7463 17.82 54.893 18.42C55.0396 19.0067 55.113 19.74 55.113 20.62V27H52.993V21.46C52.993 20.7933 52.973 20.2667 52.933 19.88C52.893 19.48 52.8063 19.1867 52.673 19C52.553 18.8 52.3596 18.6733 52.093 18.62C51.8396 18.5667 51.5063 18.54 51.093 18.54C50.613 18.54 50.233 18.6067 49.953 18.74C49.673 18.86 49.4663 19.0533 49.333 19.32C49.1996 19.5733 49.113 19.9 49.073 20.3C49.033 20.7 49.013 21.18 49.013 21.74V27H46.893V21.46C46.893 20.7933 46.8663 20.2667 46.813 19.88C46.773 19.48 46.6863 19.1867 46.553 19C46.433 18.8 46.2463 18.6733 45.993 18.62C45.7396 18.5667 45.3996 18.54 44.973 18.54C44.5063 18.54 44.133 18.6067 43.853 18.74C43.573 18.8733 43.3596 19.0733 43.213 19.34C43.0796 19.5933 42.993 19.9267 42.953 20.34C42.913 20.74 42.893 21.2067 42.893 21.74V27H40.773ZM59.6925 27.16C58.9992 27.16 58.4125 27.0667 57.9325 26.88C57.4658 26.6933 57.1125 26.3867 56.8725 25.96C56.6325 25.52 56.5125 24.9267 56.5125 24.18C56.5125 23.3933 56.6058 22.7733 56.7925 22.32C56.9792 21.8533 57.2992 21.52 57.7525 21.32C58.2058 21.12 58.8458 21.02 59.6725 21.02C59.8058 21.02 59.9992 21.0267 60.2525 21.04C60.5192 21.04 60.8192 21.0467 61.1525 21.06C61.4992 21.06 61.8392 21.0667 62.1725 21.08C62.5192 21.08 62.8325 21.0867 63.1125 21.1V20.62C63.1125 20.1 63.0792 19.6933 63.0125 19.4C62.9458 19.1067 62.8058 18.8933 62.5925 18.76C62.3925 18.6133 62.0992 18.52 61.7125 18.48C61.3258 18.44 60.8258 18.42 60.2125 18.42C59.9192 18.42 59.5725 18.4333 59.1725 18.46C58.7858 18.4733 58.4058 18.4933 58.0325 18.52C57.6592 18.5467 57.3725 18.58 57.1725 18.62V16.94C57.7192 16.8333 58.3192 16.76 58.9725 16.72C59.6258 16.6667 60.2792 16.64 60.9325 16.64C61.6925 16.64 62.3258 16.6867 62.8325 16.78C63.3525 16.8733 63.7725 17.02 64.0925 17.22C64.4125 17.42 64.6525 17.68 64.8125 18C64.9725 18.32 65.0858 18.7067 65.1525 19.16C65.2192 19.6 65.2525 20.1067 65.2525 20.68V27H63.2925L63.2125 25.68H63.0925C62.8658 26.1067 62.5592 26.4333 62.1725 26.66C61.7992 26.8733 61.3925 27.0067 60.9525 27.06C60.5125 27.1267 60.0925 27.16 59.6925 27.16ZM60.6325 25.44C60.9658 25.44 61.2658 25.42 61.5325 25.38C61.8125 25.3267 62.0525 25.2467 62.2525 25.14C62.4658 25.02 62.6325 24.86 62.7525 24.66C62.8725 24.4333 62.9592 24.1733 63.0125 23.88C63.0792 23.5867 63.1125 23.24 63.1125 22.84V22.48H60.1925C59.7525 22.48 59.4125 22.5133 59.1725 22.58C58.9458 22.6467 58.7925 22.7867 58.7125 23C58.6325 23.2133 58.5925 23.54 58.5925 23.98C58.5925 24.3933 58.6392 24.7067 58.7325 24.92C58.8258 25.12 59.0192 25.26 59.3125 25.34C59.6192 25.4067 60.0592 25.44 60.6325 25.44Z" fill="#888888"/>
<path d="M72.4879 23.596C71.8159 23.596 71.2639 23.564 70.8319 23.5C70.3999 23.428 70.0559 23.308 69.7999 23.14C69.5519 22.972 69.3719 22.732 69.2599 22.42C69.1479 22.1 69.0759 21.692 69.0439 21.196C69.0199 20.7 69.0079 20.092 69.0079 19.372C69.0079 18.652 69.0199 18.044 69.0439 17.548C69.0759 17.052 69.1479 16.648 69.2599 16.336C69.3719 16.016 69.5519 15.772 69.7999 15.604C70.0559 15.436 70.3999 15.32 70.8319 15.256C71.2639 15.184 71.8159 15.148 72.4879 15.148C73.1679 15.148 73.7239 15.184 74.1559 15.256C74.5959 15.32 74.9399 15.436 75.1879 15.604C75.4439 15.772 75.6279 16.016 75.7399 16.336C75.8519 16.648 75.9199 17.052 75.9439 17.548C75.9759 18.044 75.9919 18.652 75.9919 19.372C75.9919 20.092 75.9759 20.7 75.9439 21.196C75.9199 21.692 75.8519 22.1 75.7399 22.42C75.6279 22.732 75.4439 22.972 75.1879 23.14C74.9399 23.308 74.5959 23.428 74.1559 23.5C73.7239 23.564 73.1679 23.596 72.4879 23.596ZM72.4879 22.936C73.0399 22.936 73.4919 22.924 73.8439 22.9C74.2039 22.868 74.4799 22.796 74.6719 22.684C74.8719 22.564 75.0159 22.376 75.1039 22.12C75.1999 21.864 75.2559 21.516 75.2719 21.076C75.2959 20.628 75.3079 20.06 75.3079 19.372C75.3079 18.684 75.2959 18.12 75.2719 17.68C75.2559 17.232 75.1999 16.884 75.1039 16.636C75.0159 16.38 74.8719 16.196 74.6719 16.084C74.4799 15.964 74.2039 15.888 73.8439 15.856C73.4919 15.824 73.0399 15.808 72.4879 15.808C71.9439 15.808 71.4959 15.824 71.1439 15.856C70.7919 15.888 70.5159 15.964 70.3159 16.084C70.1159 16.196 69.9679 16.38 69.8719 16.636C69.7839 16.884 69.7279 17.232 69.7039 17.68C69.6879 18.12 69.6799 18.684 69.6799 19.372C69.6799 20.06 69.6879 20.628 69.7039 21.076C69.7279 21.516 69.7839 21.864 69.8719 22.12C69.9679 22.376 70.1159 22.564 70.3159 22.684C70.5159 22.796 70.7919 22.868 71.1439 22.9C71.4959 22.924 71.9439 22.936 72.4879 22.936ZM70.8079 21.604V17.164H72.8599C73.2919 17.164 73.6079 17.224 73.8079 17.344C74.0079 17.456 74.1359 17.62 74.1919 17.836C74.2479 18.044 74.2759 18.288 74.2759 18.568C74.2759 18.832 74.2399 19.088 74.1679 19.336C74.0959 19.576 73.9199 19.748 73.6399 19.852L74.3599 21.604H73.3399L72.7279 19.996H71.7559V21.604H70.8079ZM71.7559 19.228H72.4759C72.7479 19.228 72.9399 19.208 73.0519 19.168C73.1719 19.12 73.2439 19.052 73.2679 18.964C73.2999 18.868 73.3159 18.74 73.3159 18.58C73.3159 18.412 73.2999 18.284 73.2679 18.196C73.2359 18.108 73.1639 18.048 73.0519 18.016C72.9479 17.976 72.7799 17.956 72.5479 17.956H71.7559V19.228Z" fill="#888888"/>
</svg>
